# xmcd
# 
# Track frame offsets:
#     150
#     13075
#     30022
#     42992
#     56332
#     69545
#     80442
#     90652
#     99537
#     110117
#     121550
#     132935
#     144102
#     157480
#     168090
#     178040
#     190255
#     200018
#     214145
#     227790
#     241513
#     256230
#     269198
#     282030
# 
# Disc length: 3956
# 
# Revision: 1
# Processed by: cddbd v1.5.2PL0 Copyright (c) Steve Scherf et al.
# Submitted via: fre:ac v1.0.27
# 
DISCID=4c0f7218
DTITLE=B. B. KING - THE COMPLETE RPM - KENT RECORDING BOX
DYEAR=2015
DGENRE=Blues
TTITLE0=Mistreated Woman - alt. take
TTITLE1=The Other Night Blues - take 1
TTITLE2=The Other Night Blues - take 3
TTITLE3=Walkin' And Cryin' - take 2
TTITLE4=Walkin' And Cryin' - take 3
TTITLE5=Don't You Want A Man Like Me - alt. take
TTITLE6=B.B. Blues - incomplete take 1
TTITLE7=A New Way Of Driving
TTITLE8=Fine Lookin' Woman - take 1
TTITLE9=Fine Lookin' Woman - take 3
TTITLE10=She's A Mean Woman - take 1
TTITLE11=Pray For You - take 2
TTITLE12=Darling I Love You
TTITLE13=That Ain't The Way To Do It - alt. take
TTITLE14=I Got A Woman Who Lives Upon The Hill
TTITLE15=I Got A Girl Who Lives Up On The Hill
TTITLE16=I'm So Glad
TTITLE17=Low Down Dirty Baby
TTITLE18=Story From My Heart And Soul - take 1
TTITLE19=Woke Up This Morning - take 1
TTITLE20=Don't Have To Cry (Past Day) - take 1
TTITLE21=Please Love Me - take 1
TTITLE22=Blind Love - take 2
TTITLE23=Please Remember Me
EXTD=
EXTT0=
EXTT1=
EXTT2=
EXTT3=
EXTT4=
EXTT5=
EXTT6=
EXTT7=
EXTT8=
EXTT9=
EXTT10=
EXTT11=
EXTT12=
EXTT13=
EXTT14=
EXTT15=
EXTT16=
EXTT17=
EXTT18=
EXTT19=
EXTT20=
EXTT21=
EXTT22=
EXTT23=
PLAYORDER=
